<svg id="svg4112" xmlns="http://www.w3.org/2000/svg" xmlns:xlink="http://www.w3.org/1999/xlink" viewBox="0 0 508.53 602.17"><defs><linearGradient id="linear-gradient" x1="-457.53" y1="-37.86" x2="-217.12" y2="541.55" gradientUnits="userSpaceOnUse"><stop offset="0" stop-color="#a80"/><stop offset="1" stop-color="#a80" stop-opacity="0"/></linearGradient><linearGradient id="linear-gradient-2" x1="-474.71" y1="-98.64" x2="-314.66" y2="316.82" gradientUnits="userSpaceOnUse"><stop offset="0" stop-color="#2b2200"/><stop offset="1" stop-color="#2b2200" stop-opacity="0"/></linearGradient><linearGradient id="linear-gradient-3" x1="-407.57" y1="353.87" x2="-569.09" y2="-149.72" gradientUnits="userSpaceOnUse"><stop offset="0" stop-color="#fff"/><stop offset="1" stop-color="#fff" stop-opacity="0"/></linearGradient><linearGradient id="linear-gradient-4" x1="-178.04" y1="421.57" x2="-390.57" y2="-241.05" xlink:href="#linear-gradient-3"/></defs><g id="layer1"><g id="g4049"><path d="M-102.2,234.22c-2.25,78.09-24.24,156.58-69.21,220.94C-218,522.38-285.33,572.6-358,608.75c-50.57-24.47-100.24-52.65-140.81-91.87-44.14-41.6-72.84-97.47-88.51-155.66-23.49-89.77-24.8-183.48-22-275.73-.7-8.16.61-16.84,5.74-23.46,12.88-15.15,31.94-23,50.4-29.17,50.23-15.55,102.55-22,155-24.67l1.05,3.43,1.82,5.93.8,2.61.51,1.67.57,1.85,1.92,6.27.15.48,0,.13L-358.13,139l-25.22,140.59L-401,378l26.19-95.89L-339,151-360.84,29.63l0-.21-.11-.57-1.13-6.31-.33-1.81-.31-1.73-.47-2.61-1.08-6L-364.92,7q9-.23,18-.35,10.43-.07,20.86.08c49.17,1.17,98.72,4.1,146.59,15.88,19.18,5.39,39.54,10.6,54.85,24,8.57,6.22,11,17.22,11.17,27.25C-107.4,127.07-100.32,180.51-102.2,234.22Z" transform="translate(610.42 -6.58)"/><path d="M-118.12,241.08c-2.74,70.71-21.89,141.6-60.92,201q-3.68,5.68-7.57,11.22a387.11,387.11,0,0,1-50.09,57.8c-34.56,32.89-74.77,60-117.09,81.88-3.43,2.16-6.88,4.08-10.35.8C-417.83,567.13-470.59,535.26-510,489.39a267.32,267.32,0,0,1-16.52-21.12c-25.92-36.66-42.85-79.34-53.18-123-12.9-56-17.52-113.39-18.35-170.84,0-.79,0-1.58,0-2.37,0-2.63-.06-5.26-.07-7.9,0-.23,0-.46,0-.68-.13-21.14.2-42.27.78-63.35.07-2.57.15-5.13.23-7.7,0-.18,0-.36,0-.54a.76.76,0,0,1,0-.15,28.64,28.64,0,0,1,.14-7.17c0-.34.1-.68.16-1,0-.09,0-.18,0-.26.11-.55.22-1.1.35-1.64a.14.14,0,0,0,0-.06,31.72,31.72,0,0,1,1.92-5.58s0,0,0,0a34,34,0,0,1,7-10.06c15.93-15.3,37.64-22.78,58.52-28.84,43.56-11.87,88.54-17.27,133.64-19.56l.8,2.61.51,1.67.57,1.85,1.92,6.27.15.48,0,.13L-358.13,139l-25.22,140.59L-401,378l26.19-95.89L-339,151-360.84,29.63l0-.21-.11-.57-1.13-6.31-.33-1.81-.31-1.73-.47-2.61c3.23-.07,6.45-.13,9.68-.18h0q31.62-.37,63.22,1.5c36.82,2.54,74,6.21,109.39,17,10.73,3.5,22,7.31,31.71,13.34a57.25,57.25,0,0,1,13.55,11.41A24.13,24.13,0,0,1-130.76,68c1.92,5.69,2.2,12,2.52,18C-122.1,137.37-115.78,189.18-118.12,241.08Z" transform="translate(610.42 -6.58)"/><path d="M-107.76,265c-6.34,69.58-29.72,138-71.15,194.65-45.55,63.07-110,110.59-179.15,145.2-57.69-28-114.47-61.22-156.86-109.91-37.54-42.71-60.55-96.55-73.32-151.54-19.44-85.66-20.32-174.28-17.54-261.73-1.07-8.35,3-16.5,9-22.09,16.35-14.56,37.84-21.73,58.6-27.65,46-12.31,93.44-17.88,141-20.31l1.82,5.93.8,2.61.51,1.67.57,1.85,1.92,6.27.15.48,0,.13L-358.13,139l-25.22,140.59L-401,378l26.19-95.89L-339,151-360.84,29.63l0-.21-.11-.57-1.13-6.31-.33-1.81-.31-1.73-.47-2.61-1.08-6q6.49-.16,13-.27h0c23.28-.21,46.58.3,69.82,1.75C-243,14.59-204.2,18.44-167.1,29.56c15.46,5.17,32.17,10.6,43.51,22.88,7,7.16,6,17.72,7,26.91C-108.94,140.78-101.5,203-107.76,265Z" transform="translate(610.42 -6.58)" style="fill:#806600;opacity:0.8799999952316284;isolation:isolate"/><path d="M-119.4,255.11c-4.44,64.3-23.36,128-58.78,182C-216.82,497-273,543.25-334.93,577.87q-12.06,6.75-24.38,12.91l-.59.3q-11.36-5.49-22.54-11.3c-28.39-14.67-56.24-31.2-81.53-50.81-21.79-16.9-41.69-36.09-58.38-58.34-33.93-44.63-52.8-98.9-62.9-153.62-8.62-47-12.07-94.74-12.82-142.54,0-.79,0-1.58,0-2.37,0-2.63-.06-5.26-.07-7.9,0-.23,0-.46,0-.68,0-1.42,0-2.85,0-4.28,0-.37,0-.74,0-1.11,0-1.74,0-3.49,0-5.25,0-17.58.32-35.16.83-52.71.07-2.57.15-5.13.23-7.7,0-.18,0-.36,0-.54l.09-2.84a.17.17,0,0,0,0-.07,20.26,20.26,0,0,1,.05-4.41c0-.38.1-.76.16-1.14a.19.19,0,0,0,0-.08s0,0,0,0c.1-.56.23-1.12.37-1.67a.14.14,0,0,0,0-.06c2-7.41,7.81-13.61,13.93-18.09,18.84-13.45,41.59-19.86,63.75-25.48,40.9-9.51,82.76-14.18,124.72-16.23l.57,1.85,1.92,6.27.15.48,0,.13L-358.13,139l-25.22,140.59L-401,378l26.19-95.89L-339,151-360.84,29.63l0-.21-.11-.57-1.13-6.31-.33-1.81c3-.06,6-.12,8.95-.16h0a870.1,870.1,0,0,1,100.29,4.5c32,3.72,64.42,8.45,94.24,21,10.17,4.72,21.4,10.45,26.79,20.64a27.25,27.25,0,0,1,1.55,3.48c1.76,8.53,1.58,17.46,2.94,26.11C-121.06,148.9-115.27,202-119.4,255.11Z" transform="translate(610.42 -6.58)" style="fill:#806600;opacity:0.8799999952316284;isolation:isolate"/><path d="M-186.61,453.33c-25.14,34.31-58.58,67.41-102.77,97.67a577.32,577.32,0,0,1-68.9,40.28l-1-.5c-31.55-15.3-59.91-30.91-85.11-48.19l-.19-.12C-545.85,473-596.16,376.57-598.18,164.2c0-.23,0-.46,0-.68,0-1.42,0-2.85,0-4.28,0-.37,0-.74,0-1.11,0-1.74,0-3.49,0-5.25q-.06-29.1,1.07-61.1l.09-2.76q.11-2.7.21-5.43v-.12a.19.19,0,0,0,0-.08c0-.21,0-.43,0-.64a24.65,24.65,0,0,1,2.3-6.7s0,0,0,0c16.34-32,104.48-50.82,200-55.85l.51,1.67.57,1.85,1.92,6.27.15.48,0,.13L-358.13,139l-25.22,140.59L-401,378l26.19-95.89L-339,151-360.84,29.63l0-.21-.11-.57-1.13-6.31-.33-1.81-.31-1.73c86.7-1.79,173.57,7.7,213.53,29,13.05,7,21.1,15.15,22.51,24.64a19.62,19.62,0,0,1,.21,2.18C-121.57,143.85-81.09,309.33-186.61,453.33Z" transform="translate(610.42 -6.58)" style="fill:#fc0;opacity:0.8799999952316284;isolation:isolate"/><path id="path3045" d="M-128.88,97.33c-1.23-9.16-1.3-18.58-3.28-27.58a28.24,28.24,0,0,0-3.21-5.63C-142,55-153.54,50-163.72,45.71-199.51,32-238.12,27.92-276.14,24.62c-25.15-1.89-50.38-2.52-75.59-2.3q-5.19.09-10.38.22l1.13,6.31q10.16-.2,20.3-.21c33.38.23,67,1.48,100.13,6A423.47,423.47,0,0,1-188,45.11c10.84,3.11,22.06,6.76,32,12.41l.09,0A63.64,63.64,0,0,1-140,70.12c.26.31.52.63.76,1,0,0,0,0,0,0,4.53,6,5.83,13.74,5.92,21.14,5.38,48.67,12.15,97.46,10.18,146.55-2.09,66.05-18.82,132.37-54,188.66-39.49,63.69-99.33,112.44-165.12,147.17-4.65,2.54-9.42,4.91-14.14,7.35-53.87-26.25-107.14-57.31-146.46-103.29-38.94-45-60.59-102.49-71.18-160.54-9.46-50.53-12.49-101.87-12.66-153.22-.08-23.39.43-46.78,1.19-70.1.69-11.93,10.21-20.69,19.37-27,21.63-13.58,47-19.86,71.72-25.42q24.35-4.87,49-7.83c1.6-.2,3.19-.39,4.79-.57h0c16.3-1.87,32.68-3.19,49.08-4.05l-1.92-6.27C-438.63,26-483.64,31.19-527.31,42.9c-20.19,5.74-41.09,12.63-56.8,27.18a27.57,27.57,0,0,0-2.06,2.27,24.48,24.48,0,0,0-5.74,18.39c-2.61,83.8-1.78,168.73,17,250.77,12.5,53.66,35.18,105.8,72.49,147,38.9,43.42,90.07,73.87,142,99.42,3.41,2.79,6.78-1.73,10.12-2.73,66.57-34.71,127.93-82.81,169.46-145.92,34.14-51.57,53.66-112.14,59.24-173.61C-116.13,209.52-121.75,153-128.88,97.33Z" transform="translate(610.42 -6.58)" style="fill:#540;opacity:0.8799999952316284;isolation:isolate"/><path d="M-186.61,453.33c-25.14,34.31-58.58,67.41-102.77,97.67a577.32,577.32,0,0,1-68.9,40.28l-1-.5c-31.55-15.3-59.91-30.91-85.11-48.19l-.19-.12C-545.85,473-596.16,376.57-598.18,164.2c0-.23,0-.46,0-.68,0-1.42,0-2.85,0-4.28,0-.37,0-.74,0-1.11,0-1.74,0-3.49,0-5.25q-.06-29.1,1.07-61.1l.09-2.76q.11-2.7.21-5.43v-.12a.19.19,0,0,0,0-.08c0-.21,0-.43,0-.64a24.65,24.65,0,0,1,2.3-6.7s0,0,0,0c16.34-32,104.48-50.82,200-55.85l.51,1.67.57,1.85,1.92,6.27.15.48,0,.13L-358.13,139l-25.22,140.59L-401,378l26.19-95.89L-339,151-360.84,29.63l0-.21-.11-.57-1.13-6.31-.33-1.81-.31-1.73c86.7-1.79,173.57,7.7,213.53,29,13.05,7,21.1,15.15,22.51,24.64a19.62,19.62,0,0,1,.21,2.18C-121.57,143.85-81.09,309.33-186.61,453.33Z" transform="translate(610.42 -6.58)" style="opacity:0.8799999952316284;isolation:isolate;fill:url(#linear-gradient)"/><path d="M-236.7,511.13A469.34,469.34,0,0,1-289.38,551q-21.14,13.89-45.55,26.87-11.18,5.94-23.07,11.66c-32-14.93-60.81-30.13-86.42-46.94l-.19-.12q-10-6.57-19.36-13.5c-24-17.81-44.88-37.6-62.57-60.7C-584,393.19-608.12,283.11-600.31,91.85a24.22,24.22,0,0,1,3.45-8.46s0,0,0,0,0,0,0,0a43.23,43.23,0,0,1,10.66-11c25.33-19.07,81.11-31.93,145.5-38.35h0c16-1.59,32.51-2.78,49.23-3.57l0,.13L-358.13,139l-25.22,140.59L-401,378l26.19-95.89L-339,151-360.84,29.63l0-.21c41.85-.76,83.67,1,120.32,5.25,47.36,5.53,86.11,15.3,105.18,29.45,1.14.84,2.2,1.7,3.2,2.58.49.42,1,.86,1.41,1.3a32.41,32.41,0,0,1,4,4.64,21.18,21.18,0,0,1,4.14,11.45C-116.87,160.93-64.46,359.9-236.7,511.13Z" transform="translate(610.42 -6.58)" style="opacity:0.33000001311302185;isolation:isolate;fill:url(#linear-gradient-2)"/><path id="path3939" d="M-128.88,97.33c-1.23-9.16-1.3-18.58-3.28-27.58a28.24,28.24,0,0,0-3.21-5.63C-142,55-153.54,50-163.72,45.71-199.51,32-238.12,27.92-276.14,24.62c-25.15-1.89-50.38-2.52-75.59-2.3q-5.19.09-10.38.22l1.13,6.31q10.16-.2,20.3-.21c33.38.23,67,1.48,100.13,6A423.47,423.47,0,0,1-188,45.11c10.84,3.11,22.06,6.76,32,12.41l.09,0A63.64,63.64,0,0,1-140,70.12c.26.31.52.63.76,1,0,0,0,0,0,0,4.53,6,5.83,13.74,5.92,21.14,5.38,48.67,12.15,97.46,10.18,146.55-2.09,66.05-18.82,132.37-54,188.66-39.49,63.69-99.33,112.44-165.12,147.17-4.65,2.54-9.42,4.91-14.14,7.35-53.87-26.25-107.14-57.31-146.46-103.29-38.94-45-60.59-102.49-71.18-160.54-9.46-50.53-12.49-101.87-12.66-153.22-.08-23.39.43-46.78,1.19-70.1.69-11.93,10.21-20.69,19.37-27,21.63-13.58,47-19.86,71.72-25.42q24.35-4.87,49-7.83c1.6-.2,3.19-.39,4.79-.57h0c16.3-1.87,32.68-3.19,49.08-4.05l-1.92-6.27C-438.63,26-483.64,31.19-527.31,42.9c-20.19,5.74-41.09,12.63-56.8,27.18a27.57,27.57,0,0,0-2.06,2.27,24.48,24.48,0,0,0-5.74,18.39c-2.61,83.8-1.78,168.73,17,250.77,12.5,53.66,35.18,105.8,72.49,147,38.9,43.42,90.07,73.87,142,99.42,3.41,2.79,6.78-1.73,10.12-2.73,66.57-34.71,127.93-82.81,169.46-145.92,34.14-51.57,53.66-112.14,59.24-173.61C-116.13,209.52-121.75,153-128.88,97.33Z" transform="translate(610.42 -6.58)" style="fill:#540;opacity:0.8799999952316284;isolation:isolate"/><path id="path3941" d="M-128.88,97.33c-1.23-9.16-1.3-18.58-3.28-27.58a28.24,28.24,0,0,0-3.21-5.63C-142,55-153.54,50-163.72,45.71-199.51,32-238.12,27.92-276.14,24.62c-25.15-1.89-50.38-2.52-75.59-2.3q-5.19.09-10.38.22l1.13,6.31q10.16-.2,20.3-.21c33.38.23,67,1.48,100.13,6A423.47,423.47,0,0,1-188,45.11c10.84,3.11,22.06,6.76,32,12.41l.09,0A63.64,63.64,0,0,1-140,70.12c.26.31.52.63.76,1,0,0,0,0,0,0,4.53,6,5.83,13.74,5.92,21.14,5.38,48.67,12.15,97.46,10.18,146.55-2.09,66.05-18.82,132.37-54,188.66-39.49,63.69-99.33,112.44-165.12,147.17-4.65,2.54-9.42,4.91-14.14,7.35-53.87-26.25-107.14-57.31-146.46-103.29-38.94-45-60.59-102.49-71.18-160.54-9.46-50.53-12.49-101.87-12.66-153.22-.08-23.39.43-46.78,1.19-70.1.69-11.93,10.21-20.69,19.37-27,21.63-13.58,47-19.86,71.72-25.42q24.35-4.87,49-7.83c1.6-.2,3.19-.39,4.79-.57h0c16.3-1.87,32.68-3.19,49.08-4.05l-1.92-6.27C-438.63,26-483.64,31.19-527.31,42.9c-20.19,5.74-41.09,12.63-56.8,27.18a27.57,27.57,0,0,0-2.06,2.27,24.48,24.48,0,0,0-5.74,18.39c-2.61,83.8-1.78,168.73,17,250.77,12.5,53.66,35.18,105.8,72.49,147,38.9,43.42,90.07,73.87,142,99.42,3.41,2.79,6.78-1.73,10.12-2.73,66.57-34.71,127.93-82.81,169.46-145.92,34.14-51.57,53.66-112.14,59.24-173.61C-116.13,209.52-121.75,153-128.88,97.33Z" transform="translate(610.42 -6.58)" style="fill:#540;opacity:0.8799999952316284;isolation:isolate"/><path d="M-358.13,139l-25.22,140.59c-65-19.81-126.66-51-179.68-93.65-7.44-7.25-17.71-12.44-23.73-21a26.62,26.62,0,0,1-3.32-6.3c-1.8-22.7-.64-45.55.43-68.27,3.44-14.79,17.24-24,30.47-29.57,36.47-14.3,74.86-22,113.72-26.22,18-2,36-3.2,54.08-4Z" transform="translate(610.42 -6.58)" style="opacity:0.8799999952316284;isolation:isolate;fill:url(#linear-gradient-3)"/><path d="M-134.44,320.08c-64.91-4.82-129.75-12.28-193.34-26.49q-23.72-4.77-47-11.48L-339,151-360.84,29.63c51.29-.47,102.92.92,153.29,11.35,17.57,3.52,35.68,7.91,51.48,16.54l.09,0a89.21,89.21,0,0,1,12.68,8.35,27.11,27.11,0,0,1,4,5.16s0,0,0,0c5.93,9.9,5.47,22.82,6.82,34.08C-123,176.27-117.83,249.65-134.44,320.08Z" transform="translate(610.42 -6.58)" style="opacity:0.8799999952316284;isolation:isolate;fill:url(#linear-gradient-4)"/></g></g></svg>