<svg id="Layer_1" data-name="Layer 1" xmlns="http://www.w3.org/2000/svg" viewBox="0 0 239.25 255.19"><g id="redheart"><g id="left"><path d="M-154.21,255.24c-33.23-77-58.09-74.33-113-118.83A70.72,70.72,0,0,1-277.7,37,70.7,70.7,0,0,1-178.25,26.5h0l31.13,57.06L-196.59,139l45.53,50.52-3.15,65.69" transform="translate(293.47 -0.15)" style="fill:red"/></g><g id="right"><path d="M-180.23,26.8A70.7,70.7,0,0,1-80.87,15.57a70.7,70.7,0,0,1,11.24,99.37c-44.07,55.29-68.91,58.1-84.77,140.4l2.64-65.71-45.93-50.16,49-55.86L-180.23,26.8" transform="translate(293.47 -0.15)" style="fill:red"/></g></g></svg>