<svg id="svg2" xmlns="http://www.w3.org/2000/svg" xmlns:xlink="http://www.w3.org/1999/xlink" viewBox="0 0 88.69 151.88"><defs><linearGradient id="linear-gradient" x1="340.55" y1="-540.98" x2="371.8" y2="-540.98" gradientTransform="matrix(1, 0, 0, -1, -311.1, -419.09)" gradientUnits="userSpaceOnUse"><stop offset="0" stop-color="gray"/><stop offset="1" stop-color="#5b5b5b"/></linearGradient><linearGradient id="linear-gradient-2" x1="424.2" y1="-524.33" x2="424.2" y2="-538.68" gradientTransform="matrix(1, 0, 0, -1, -379.86, -419.09)" gradientUnits="userSpaceOnUse"><stop offset="0"/><stop offset="1" stop-opacity="0"/></linearGradient><linearGradient id="linear-gradient-3" x1="178.75" y1="34.83" x2="141" y2="34.83" gradientTransform="matrix(1, 0, 0, -1, -107.55, 166.41)" gradientUnits="userSpaceOnUse"><stop offset="0" stop-color="#585858"/><stop offset="1" stop-color="#434343"/></linearGradient><linearGradient id="linear-gradient-4" x1="340.55" y1="-530.09" x2="371.8" y2="-530.09" gradientTransform="matrix(1, 0, 0, -1, -302.6, -413.59)" xlink:href="#linear-gradient"/><linearGradient id="linear-gradient-5" x1="355.44" y1="-528.18" x2="355.44" y2="-531.88" gradientTransform="matrix(1, 0, 0, -1, -302.6, -413.59)" xlink:href="#linear-gradient-2"/><linearGradient id="linear-gradient-6" x1="313.26" y1="-461.3" x2="385.51" y2="-487.3" gradientTransform="matrix(1, 0, 0, -1, -302.6, -413.59)" gradientUnits="userSpaceOnUse"><stop offset="0" stop-color="#959595" stop-opacity="0.31"/><stop offset="1" stop-color="#3d3d3d" stop-opacity="0.54"/></linearGradient><linearGradient id="linear-gradient-7" x1="355.44" y1="-523.29" x2="355.44" y2="-490.84" gradientTransform="matrix(1, 0, 0, -1, -302.6, -413.59)" gradientUnits="userSpaceOnUse"><stop offset="0" stop-color="#b9b9b9"/><stop offset="1" stop-color="#cecece" stop-opacity="0"/></linearGradient></defs><g id="layer2"><g id="g4131"><rect id="rect3835" x="27.47" y="106.27" width="33.75" height="31.25" style="fill:url(#linear-gradient)"/><rect id="rect4011" x="27.47" y="106.27" width="33.75" height="31.25" style="fill:url(#linear-gradient-2)"/><path id="path3869" d="M34,120.25v2.44l17.75-2.44Zm37.75.25L34,125.69v2.06l37.75-5.19Zm0,5.06L34,130.75v2.06l37.75-5.19Zm0,5.06L34,135.81v2l37.75-5.18Zm0,5L34,140.84v2.07l37.75-5.19Z" transform="translate(-8.5 -5.5)" style="fill:url(#linear-gradient-3)"/><path id="rect3837" d="M33.59,112.63v5.25a2.5,2.5,0,0,0,2.5,2.5h33.5a2.49,2.49,0,0,0,2.5-2.5v-5.25Z" transform="translate(-8.5 -5.5)" style="fill:url(#linear-gradient-4)"/><path id="path4001" d="M33.59,112.63v5.25a2.5,2.5,0,0,0,2.5,2.5h33.5a2.49,2.49,0,0,0,2.5-2.5v-5.25Z" transform="translate(-8.5 -5.5)" style="fill:url(#linear-gradient-5)"/><path id="path3032" d="M52.84,5.5A44.34,44.34,0,0,0,19.44,79,29.59,29.59,0,0,1,26.9,95.66l0,12.43a8,8,0,0,0,8,8H70.73a8,8,0,0,0,8-8V95.66A29.57,29.57,0,0,1,86.22,79s0,0,0,0A44.31,44.31,0,0,0,52.84,5.5Z" transform="translate(-8.5 -5.5)" style="opacity:0.6829299926757812;isolation:isolate;fill:url(#linear-gradient-6)"/><path id="rect3880" d="M36,143l4.25,4.75H65.45L69.7,143Z" transform="translate(-8.5 -5.5)" style="fill:gray"/><path id="rect3883" d="M40.19,147.75a3.62,3.62,0,0,0,1.57,2.87l7.3,5.57a6.54,6.54,0,0,0,7.53,0l7.31-5.57a3.64,3.64,0,0,0,1.56-2.87Z" transform="translate(-8.5 -5.5)" style="fill:#343434"/><path id="path4121" d="M52.84,5.5A44.34,44.34,0,0,0,19.44,79,29.59,29.59,0,0,1,26.9,95.66l0,12.43a8,8,0,0,0,8,8H70.73a8,8,0,0,0,8-8V95.66A29.57,29.57,0,0,1,86.22,79s0,0,0,0A44.31,44.31,0,0,0,52.84,5.5Z" transform="translate(-8.5 -5.5)" style="fill:url(#linear-gradient-7)"/><path id="path3948" d="M39.8,15.78A41.11,41.11,0,0,0,16.86,52.59c0,.61.13,1.33.19,2l11.94-2A34.55,34.55,0,0,1,46.24,26.62L39.8,15.78Z" transform="translate(-8.5 -5.5)" style="fill:#fff"/></g></g></svg>