<?xml version="1.0" standalone="no"?>
<!DOCTYPE svg PUBLIC "-//W3C//DTD SVG 20010904//EN"
 "http://www.w3.org/TR/2001/REC-SVG-20010904/DTD/svg10.dtd">
<svg version="1.0" xmlns="http://www.w3.org/2000/svg"
 width="1199.000000pt" height="1280.000000pt" viewBox="0 0 1199.000000 1280.000000"
 preserveAspectRatio="xMidYMid meet">
<metadata>
Created by potrace 1.15, written by Peter Selinger 2001-2017
</metadata>
<g transform="translate(0.000000,1280.000000) scale(0.100000,-0.100000)"
fill="#000000" stroke="none">
<path d="M5690 12784 c-269 -15 -755 -65 -769 -79 -4 -5 387 -1906 394 -1914
2 -1 34 2 72 8 163 26 288 34 608 40 l340 6 68 964 c37 530 65 966 61 970 -6
7 -667 11 -774 5z"/>
<path d="M7731 12518 c-18 -58 -521 -1849 -521 -1858 0 -4 12 -11 28 -15 15
-3 101 -36 192 -72 178 -71 399 -178 578 -280 63 -36 117 -61 121 -57 11 12
1145 1556 1154 1570 8 13 -389 252 -603 363 -252 130 -568 260 -840 347 -47
14 -88 28 -92 30 -3 2 -11 -10 -17 -28z"/>
<path d="M3385 12186 c-329 -161 -647 -344 -867 -499 l-56 -40 82 -111 c290
-391 1024 -1377 1048 -1408 l29 -37 60 46 c111 84 332 213 540 317 l206 101
-389 870 c-213 478 -391 872 -395 876 -5 4 -120 -47 -258 -115z"/>
<path d="M9522 10354 l-673 -715 110 -117 c170 -180 313 -368 415 -544 15 -27
33 -48 39 -48 6 0 275 124 597 276 322 153 718 340 880 416 162 77 298 143
303 147 8 8 -124 234 -247 419 -101 154 -266 373 -376 502 -121 141 -350 380
-363 380 -7 -1 -315 -323 -685 -716z"/>
<path d="M1307 10508 c-235 -292 -525 -762 -732 -1188 l-44 -88 152 -65 c84
-36 334 -142 557 -237 223 -95 546 -232 719 -306 173 -74 318 -134 322 -134 5
0 25 33 45 73 101 201 294 508 452 721 45 60 81 111 79 112 -1 1 -337 257
-747 569 -410 312 -750 572 -757 577 -7 6 -22 -5 -46 -34z"/>
<path d="M5820 10054 c-829 -56 -1544 -367 -2109 -918 -544 -532 -866 -1182
-967 -1951 -24 -180 -24 -590 0 -770 132 -1007 667 -1846 1521 -2384 101 -64
310 -169 727 -366 568 -268 836 -472 1060 -805 73 -109 169 -299 360 -713 272
-593 390 -898 468 -1208 65 -259 156 -501 232 -621 43 -67 128 -151 186 -185
38 -23 51 -25 110 -21 37 3 122 22 190 43 158 48 229 47 291 -3 35 -28 44 -31
63 -21 61 33 242 -20 325 -95 l41 -36 74 40 75 40 6 83 c4 57 14 102 30 139
22 49 30 58 70 73 37 14 46 23 57 55 18 54 62 104 112 129 24 11 95 34 158 51
129 35 192 66 261 127 64 58 82 107 81 213 0 97 -23 200 -87 405 -24 77 -92
302 -150 500 -171 576 -372 1163 -510 1485 -19 44 -50 133 -68 198 -19 64 -55
182 -80 262 -88 280 -97 406 -42 560 29 80 211 398 280 490 317 420 531 937
616 1490 27 173 37 563 20 746 -43 456 -177 898 -390 1284 -357 645 -934 1161
-1611 1440 -288 118 -593 196 -900 229 -106 11 -415 21 -500 15z"/>
<path d="M10980 8549 c-349 -142 -753 -307 -897 -366 -145 -59 -263 -111 -263
-115 0 -4 23 -92 50 -196 61 -227 106 -440 122 -584 10 -90 15 -108 29 -108 9
0 102 7 205 15 104 8 520 40 924 70 404 30 754 58 778 61 l43 5 -6 57 c-53
456 -143 891 -261 1252 -43 134 -59 170 -72 169 -9 0 -303 -117 -652 -260z"/>
<path d="M116 7901 c-27 -119 -74 -410 -92 -576 -20 -175 -26 -700 -11 -829
l9 -68 56 6 c32 3 381 33 777 66 874 73 1080 91 1081 93 1 1 -5 54 -12 117
-28 250 -13 526 42 765 34 147 35 138 -11 147 -189 36 -959 184 -1336 258
-256 49 -471 90 -477 90 -6 0 -17 -31 -26 -69z"/>
<path d="M9976 6185 c-21 -150 -70 -362 -121 -529 -19 -65 -37 -123 -38 -128
-2 -11 -3 -10 1011 -427 431 -178 789 -320 795 -318 14 5 80 182 126 332 80
262 174 754 207 1078 l6 67 -28 0 c-16 0 -195 4 -399 10 -203 5 -566 14 -805
19 -239 6 -503 13 -585 17 l-150 6 -19 -127z"/>
<path d="M1135 5528 c-505 -126 -921 -231 -923 -233 -7 -7 88 -332 150 -514
109 -319 339 -857 362 -848 29 11 1621 1039 1619 1045 -1 4 -34 77 -72 162
-79 176 -139 345 -180 503 -16 59 -30 109 -32 110 -2 2 -418 -99 -924 -225z"/>
<path d="M9481 4777 c-47 -84 -231 -354 -312 -456 -70 -90 -80 -107 -70 -123
24 -39 1133 -1564 1148 -1578 13 -13 21 -8 75 50 277 300 491 570 683 860 108
163 173 275 165 283 -13 11 -1653 1007 -1658 1007 -4 0 -18 -19 -31 -43z"/>
<path d="M2007 3741 c-427 -300 -775 -549 -774 -553 1 -4 51 -67 112 -140 148
-180 834 -865 849 -847 1 2 269 331 594 731 326 400 594 733 597 740 2 7 -32
42 -77 78 -109 88 -358 334 -450 446 l-75 91 -776 -546z"/>
<path d="M3615 2423 c-275 -443 -503 -812 -508 -819 -10 -18 115 -94 333 -203
323 -161 689 -290 1145 -405 177 -44 436 -98 443 -91 6 6 43 1781 40 1874 l-3
63 -195 68 c-268 92 -408 149 -590 238 -85 42 -157 77 -160 79 -3 2 -230 -360
-505 -804z"/>
</g>
</svg>
