<svg id="svg2" xmlns="http://www.w3.org/2000/svg" xmlns:xlink="http://www.w3.org/1999/xlink" viewBox="0 0 88.69 151.88"><defs><linearGradient id="linear-gradient" x1="340.55" y1="-540.98" x2="371.8" y2="-540.98" gradientTransform="matrix(1, 0, 0, -1, -311.1, -419.09)" gradientUnits="userSpaceOnUse"><stop offset="0" stop-color="gray"/><stop offset="1" stop-color="#5b5b5b"/></linearGradient><linearGradient id="linear-gradient-2" x1="424.21" y1="-524.33" x2="424.21" y2="-538.68" gradientTransform="matrix(1, 0, 0, -1, -379.86, -419.09)" gradientUnits="userSpaceOnUse"><stop offset="0"/><stop offset="1" stop-opacity="0"/></linearGradient><linearGradient id="linear-gradient-3" x1="178.75" y1="34.83" x2="141" y2="34.83" gradientTransform="matrix(1, 0, 0, -1, 2.45, 166.41)" gradientUnits="userSpaceOnUse"><stop offset="0" stop-color="#585858"/><stop offset="1" stop-color="#434343"/></linearGradient><linearGradient id="linear-gradient-4" x1="340.55" y1="-530.09" x2="371.8" y2="-530.09" gradientTransform="matrix(1, 0, 0, -1, -192.6, -413.59)" xlink:href="#linear-gradient"/><linearGradient id="linear-gradient-5" x1="355.44" y1="-528.18" x2="355.44" y2="-531.88" gradientTransform="matrix(1, 0, 0, -1, -192.6, -413.59)" xlink:href="#linear-gradient-2"/><linearGradient id="linear-gradient-6" x1="313.26" y1="-461.3" x2="385.51" y2="-487.3" gradientTransform="matrix(1, 0, 0, -1, -192.6, -413.59)" gradientUnits="userSpaceOnUse"><stop offset="0" stop-color="#fefef9" stop-opacity="0.31"/><stop offset="1" stop-color="#3d3d3d" stop-opacity="0.54"/></linearGradient><linearGradient id="linear-gradient-7" x1="356.3" y1="-523.37" x2="355.8" y2="-488.67" gradientTransform="matrix(1, 0, 0, -1, -192.6, -413.59)" gradientUnits="userSpaceOnUse"><stop offset="0" stop-color="#e9e337"/><stop offset="1" stop-color="#f9fca2" stop-opacity="0"/></linearGradient></defs><g id="layer2"><g id="g4210"><g id="g4153"><path id="path4189" d="M162.84,5.5A44.35,44.35,0,0,0,129.43,79a29.54,29.54,0,0,1,7.47,16.66l0,12.43a8,8,0,0,0,8,8h35.78a8,8,0,0,0,8-8V95.66A29.57,29.57,0,0,1,196.22,79s0,0,0,0A44.32,44.32,0,0,0,162.84,5.5Z" transform="translate(-118.5 -5.5)" style="fill:#f9ff00;opacity:0.6829299926757812;isolation:isolate"/><rect id="rect4155" x="27.47" y="106.27" width="33.75" height="31.25" style="fill:url(#linear-gradient)"/><rect id="rect4157" x="27.47" y="106.27" width="33.75" height="31.25" style="fill:url(#linear-gradient-2)"/><path id="path4159" d="M144,120.25v2.44l17.75-2.44Zm37.75.25L144,125.69v2.06l37.75-5.19Zm0,5.06L144,130.75v2.06l37.75-5.19Zm0,5.06L144,135.81v2l37.75-5.18Zm0,5L144,140.84v2.07l37.75-5.19Z" transform="translate(-118.5 -5.5)" style="fill:url(#linear-gradient-3)"/><path id="path4161" d="M143.59,112.63v5.25a2.5,2.5,0,0,0,2.5,2.5h33.5a2.5,2.5,0,0,0,2.5-2.5v-5.25Z" transform="translate(-118.5 -5.5)" style="fill:url(#linear-gradient-4)"/><path id="path4163" d="M143.59,112.63v5.25a2.5,2.5,0,0,0,2.5,2.5h33.5a2.5,2.5,0,0,0,2.5-2.5v-5.25Z" transform="translate(-118.5 -5.5)" style="fill:url(#linear-gradient-5)"/><path id="path4165" d="M162.84,5.5A44.35,44.35,0,0,0,129.43,79a29.54,29.54,0,0,1,7.47,16.66l0,12.43a8,8,0,0,0,8,8h35.78a8,8,0,0,0,8-8V95.66A29.57,29.57,0,0,1,196.22,79s0,0,0,0A44.32,44.32,0,0,0,162.84,5.5Z" transform="translate(-118.5 -5.5)" style="opacity:0.28200000524520874;isolation:isolate;fill:url(#linear-gradient-6)"/><path id="path4167" d="M146,143l4.25,4.75h25.25L179.7,143Z" transform="translate(-118.5 -5.5)" style="fill:gray"/><path id="path4169" d="M150.19,147.75a3.64,3.64,0,0,0,1.56,2.87l7.31,5.57a6.54,6.54,0,0,0,7.53,0l7.31-5.57a3.64,3.64,0,0,0,1.56-2.87Z" transform="translate(-118.5 -5.5)" style="fill:#343434"/><path id="path4171" d="M162.84,5.5A44.35,44.35,0,0,0,129.43,79a29.54,29.54,0,0,1,7.47,16.66l0,12.43a8,8,0,0,0,8,8h35.78a8,8,0,0,0,8-8V95.66A29.57,29.57,0,0,1,196.22,79s0,0,0,0A44.32,44.32,0,0,0,162.84,5.5Z" transform="translate(-118.5 -5.5)" style="fill:url(#linear-gradient-7)"/><path id="path4173" d="M149.8,15.78a41.11,41.11,0,0,0-22.94,36.81c0,.61.13,1.33.19,2l11.94-2a34.55,34.55,0,0,1,17.25-25.91L149.8,15.78Z" transform="translate(-118.5 -5.5)" style="fill:#fff"/></g></g></g></svg>