<svg id="svg4112" xmlns="http://www.w3.org/2000/svg" xmlns:xlink="http://www.w3.org/1999/xlink" viewBox="0 0 508.53 602.18"><defs><linearGradient id="linear-gradient" x1="63.71" y1="-106" x2="416.11" y2="743.31" gradientTransform="matrix(0.69, 0, 0, -0.69, 60.26, 499.75)" gradientUnits="userSpaceOnUse"><stop offset="0" stop-color="#a80"/><stop offset="1" stop-color="#a80" stop-opacity="0"/></linearGradient><linearGradient id="linear-gradient-2" x1="12.12" y1="-227.63" x2="263.12" y2="423.94" gradientTransform="matrix(0.66, 0, 0, -0.64, 73.52, 502.72)" gradientUnits="userSpaceOnUse"><stop offset="0" stop-color="#2b2200"/><stop offset="1" stop-color="#2b2200" stop-opacity="0"/></linearGradient><linearGradient id="linear-gradient-3" x1="403.24" y1="827.66" x2="144.65" y2="21.45" gradientTransform="matrix(0.68, 0, 0, -0.67, 66.46, 501)" gradientUnits="userSpaceOnUse"><stop offset="0" stop-color="#fff"/><stop offset="1" stop-color="#fff" stop-opacity="0"/></linearGradient></defs><g id="layer1"><g id="g4049"><path id="path3943" d="M270.06,6.6c-69.37,1-139.67,5.64-206.29,26.26-18.46,6.19-37.52,14-50.4,29.17-5.13,6.62-6.44,15.3-5.74,23.46-2.78,92.25-1.47,186,22,275.73C45.32,419.41,74,475.28,118.16,516.88c40.57,39.22,90.24,67.4,140.81,91.87C331.67,572.6,399,522.38,445.59,455.16c45-64.36,67-142.85,69.21-220.94,1.88-53.71-5.2-107.15-11.27-160.38-.15-10-2.6-21-11.17-27.25-15.31-13.43-35.67-18.64-54.85-24C389.64,10.78,340.09,7.85,290.92,6.68q-10.43-.15-20.86-.08Z" transform="translate(-6.58 -6.57)"/><path id="path3129" d="M263.46,16.21C204.49,17.12,145,21.57,88,37.11,67.11,43.17,45.4,50.65,29.47,66c-6.78,6.74-10.7,16.35-9.63,26-2.6,84.67-1.65,170.48,17.44,253.38C49.66,397.6,71.54,448.54,107,489.39c39.43,45.87,92.19,77.74,145.88,104.42,3.47,3.28,6.92,1.36,10.35-.8,69-35.61,132.27-85.22,174.75-150.9,39-59.43,58.18-130.32,60.92-201,2.34-51.9-4-103.71-10.12-155.08-.5-9.25-.88-19.36-7.43-26.59C469.86,46,452.36,40,436.07,34.66c-35.42-10.75-72.57-14.42-109.39-17q-31.57-1.87-63.22-1.5Z" transform="translate(-6.58 -6.57)"/><path id="path3070" d="M265.69,10.1c-62.77,1.07-126.1,5.56-186.88,21.83C58.05,37.85,36.56,45,20.21,59.58c-6,5.59-10.06,13.74-9,22.09C8.44,169.12,9.32,257.74,28.76,343.4c12.77,55,35.78,108.83,73.32,151.54,42.39,48.69,99.17,81.95,156.86,109.91,69.15-34.61,133.6-82.13,179.15-145.2C479.52,403,502.9,334.58,509.24,265c6.26-62-1.18-124.22-8.82-185.65-1-9.19,0-19.75-7-26.91-11.34-12.28-28.05-17.71-43.51-22.88-37.1-11.12-75.86-15-114.38-17.71-23.24-1.45-46.54-2-69.82-1.75Z" transform="translate(-6.58 -6.57)" style="fill:#806600;opacity:0.8799999952316284;isolation:isolate"/><path id="path3099" d="M263.51,20.57c-55.46.81-111.21,4.91-165.29,17.49-22.16,5.62-44.91,12-63.75,25.48-8.08,5.92-15.63,14.83-14.54,25.55C17.41,165.16,18,242,31.75,317c10.1,54.72,29,109,62.9,153.62,36.07,48.08,87.06,81.84,139.91,109.15q11.19,5.82,22.54,11.3c71.57-35.75,137.94-86.17,181.72-154,35.42-54,54.34-117.69,58.78-182,4.13-53.07-1.66-106.21-8.28-158.82-1.36-8.65-1.18-17.58-2.94-26.11C481.89,57.77,469.31,51.29,458,46.06c-29.82-12.53-62.27-17.26-94.24-21a870.1,870.1,0,0,0-100.29-4.5Z" transform="translate(-6.58 -6.57)" style="fill:#806600;opacity:0.8799999952316284;isolation:isolate"/><path id="path3043" d="M490.5,74.82c6.65,93.13,78,361.84-231.78,516.46C84.36,506.91,7.12,413.94,20.16,82.75,35.05,1.91,487.28-4,490.5,74.82Z" transform="translate(-6.58 -6.57)" style="fill:#fc0;opacity:0.8799999952316284;isolation:isolate"/><path id="path3045" d="M265.27,22.32c-59,1-118.44,5.26-175.58,20.58C69.5,48.64,48.6,55.53,32.89,70.08c-5.47,5.39-8.75,12.93-7.8,20.66-2.61,83.8-1.78,168.73,17,250.77,12.5,53.66,35.18,105.8,72.49,147,38.9,43.42,90.07,73.87,142,99.42,3.41,2.79,6.78-1.73,10.12-2.73,66.57-34.71,127.93-82.81,169.46-145.92,34.14-51.57,53.66-112.14,59.24-173.61,5.48-56.14-.14-112.68-7.27-168.33-1.23-9.16-1.3-18.58-3.28-27.58-5.48-12.84-19.46-18.91-31.56-24C417.49,32,378.88,27.92,340.86,24.62c-25.15-1.89-50.38-2.52-75.59-2.3Zm11.05,6.32c51.22.35,103,3.12,152.65,16.47,17.34,5,35.66,11.35,48,25,5.16,6.16,6.61,14.32,6.7,22.13,5.38,48.67,12.15,97.46,10.18,146.55-2.09,66.05-18.82,132.37-54,188.66-39.49,63.69-99.33,112.44-165.12,147.17-4.65,2.54-9.42,4.91-14.14,7.35-53.87-26.25-107.14-57.31-146.46-103.29-38.94-45-60.59-102.49-71.18-160.54C29.13,244.62,29,169.35,31.43,94.83c.69-11.93,10.21-20.69,19.37-27C72.43,54.24,97.76,48,122.52,42.4,173,32.27,224.81,28.7,276.32,28.64Z" transform="translate(-6.58 -6.57)" style="fill:#540;opacity:0.8799999952316284;isolation:isolate"/><path id="path3050" d="M490.5,74.82c6.65,93.13,78,361.84-231.78,516.46C84.36,506.91,7.12,413.94,20.16,82.75,35.05,1.91,487.28-4,490.5,74.82Z" transform="translate(-6.58 -6.57)" style="opacity:0.8799999952316284;isolation:isolate;fill:url(#linear-gradient)"/><path id="rect3040" d="M494.43,84.09c6.76,91.14,79.24,354.13-235.43,505.44C81.91,507,3.45,416,16.69,91.85,31.81,12.74,491.16,6.91,494.43,84.09Z" transform="translate(-6.58 -6.57)" style="opacity:0.33000001311302185;isolation:isolate;fill:url(#linear-gradient-2)"/><path id="path3939" d="M265.27,22.32c-59,1-118.44,5.26-175.58,20.58C69.5,48.64,48.6,55.53,32.89,70.08c-5.47,5.39-8.75,12.93-7.8,20.66-2.61,83.8-1.78,168.73,17,250.77,12.5,53.66,35.18,105.8,72.49,147,38.9,43.42,90.07,73.87,142,99.42,3.41,2.79,6.78-1.73,10.12-2.73,66.57-34.71,127.93-82.81,169.46-145.92,34.14-51.57,53.66-112.14,59.24-173.61,5.48-56.14-.14-112.68-7.27-168.33-1.23-9.16-1.3-18.58-3.28-27.58-5.48-12.84-19.46-18.91-31.56-24C417.49,32,378.88,27.92,340.86,24.62c-25.15-1.89-50.38-2.52-75.59-2.3Zm11.05,6.32c51.22.35,103,3.12,152.65,16.47,17.34,5,35.66,11.35,48,25,5.16,6.16,6.61,14.32,6.7,22.13,5.38,48.67,12.15,97.46,10.18,146.55-2.09,66.05-18.82,132.37-54,188.66-39.49,63.69-99.33,112.44-165.12,147.17-4.65,2.54-9.42,4.91-14.14,7.35-53.87-26.25-107.14-57.31-146.46-103.29-38.94-45-60.59-102.49-71.18-160.54C29.13,244.62,29,169.35,31.43,94.83c.69-11.93,10.21-20.69,19.37-27C72.43,54.24,97.76,48,122.52,42.4,173,32.27,224.81,28.7,276.32,28.64Z" transform="translate(-6.58 -6.57)" style="fill:#540;opacity:0.8799999952316284;isolation:isolate"/><path id="path3941" d="M265.27,22.32c-59,1-118.44,5.26-175.58,20.58C69.5,48.64,48.6,55.53,32.89,70.08c-5.47,5.39-8.75,12.93-7.8,20.66-2.61,83.8-1.78,168.73,17,250.77,12.5,53.66,35.18,105.8,72.49,147,38.9,43.42,90.07,73.87,142,99.42,3.41,2.79,6.78-1.73,10.12-2.73,66.57-34.71,127.93-82.81,169.46-145.92,34.14-51.57,53.66-112.14,59.24-173.61,5.48-56.14-.14-112.68-7.27-168.33-1.23-9.16-1.3-18.58-3.28-27.58-5.48-12.84-19.46-18.91-31.56-24C417.49,32,378.88,27.92,340.86,24.62c-25.15-1.89-50.38-2.52-75.59-2.3Zm11.05,6.32c51.22.35,103,3.12,152.65,16.47,17.34,5,35.66,11.35,48,25,5.16,6.16,6.61,14.32,6.7,22.13,5.38,48.67,12.15,97.46,10.18,146.55-2.09,66.05-18.82,132.37-54,188.66-39.49,63.69-99.33,112.44-165.12,147.17-4.65,2.54-9.42,4.91-14.14,7.35-53.87-26.25-107.14-57.31-146.46-103.29-38.94-45-60.59-102.49-71.18-160.54C29.13,244.62,29,169.35,31.43,94.83c.69-11.93,10.21-20.69,19.37-27C72.43,54.24,97.76,48,122.52,42.4,173,32.27,224.81,28.7,276.32,28.64Z" transform="translate(-6.58 -6.57)" style="fill:#540;opacity:0.8799999952316284;isolation:isolate"/><path id="path3060" d="M249.91,29.69C185,31.49,118.74,36.91,57.82,60.79c-13.23,5.53-27,14.78-30.47,29.57-1.07,22.72-2.23,45.57-.43,68.27,4.61,12.66,17.95,18.44,27.05,27.31,67.93,54.62,149.94,90.48,235.25,107.65,63.59,14.21,128.43,21.67,193.34,26.49,16.61-70.43,11.44-143.81,2-214.89-1.6-13.36-.66-29-10.86-39.27C455.4,51.43,432,45.5,409.45,41,357,30.13,303.26,29.06,249.91,29.69Z" transform="translate(-6.58 -6.57)" style="opacity:0.8799999952316284;isolation:isolate;fill:url(#linear-gradient-3)"/></g></g></svg>