<svg id="Layer_1" data-name="Layer 1" xmlns="http://www.w3.org/2000/svg" viewBox="0 0 150 150"><circle cx="74.5" cy="74.5" r="59" style="fill:#ff0"/><path d="M74.5,16A58.5,58.5,0,1,1,16,74.5,58.56,58.56,0,0,1,74.5,16m0-1A59.5,59.5,0,1,0,134,74.5,59.5,59.5,0,0,0,74.5,15Z"/><ellipse cx="50" cy="47" rx="9.5" ry="12.5"/><path d="M50,35c5,0,9,5.38,9,12s-4,12-9,12-9-5.38-9-12,4-12,9-12m0-1c-5.52,0-10,5.82-10,13s4.48,13,10,13,10-5.82,10-13S55.52,34,50,34Z"/><ellipse cx="102" cy="47" rx="9.5" ry="12.5"/><path d="M102,35c5,0,9,5.38,9,12s-4,12-9,12-9-5.38-9-12,4-12,9-12m0-1c-5.52,0-10,5.82-10,13s4.48,13,10,13,10-5.82,10-13-4.48-13-10-13Z"/><ellipse cx="76" cy="104.5" rx="13" ry="17.5" style="fill:none;stroke:#000;stroke-miterlimit:10;stroke-width:4px"/></svg>