<svg id="Layer_1" data-name="Layer 1" xmlns="http://www.w3.org/2000/svg" viewBox="0 0 150 150"><circle cx="74.5" cy="74.5" r="59" style="fill:#ff0"/><path d="M74.5,16A58.5,58.5,0,1,1,16,74.5,58.56,58.56,0,0,1,74.5,16m0-1A59.5,59.5,0,1,0,134,74.5,59.5,59.5,0,0,0,74.5,15Z"/><ellipse cx="57" cy="77" rx="9.5" ry="12.5" style="fill:#20ff08"/><path d="M57,65c5,0,9,5.38,9,12s-4,12-9,12-9-5.38-9-12,4-12,9-12m0-1c-5.52,0-10,5.82-10,13s4.48,13,10,13,10-5.82,10-13S62.52,64,57,64Z"/><ellipse cx="92" cy="77" rx="9.5" ry="12.5" style="fill:#20ff08"/><path d="M92,65c5,0,9,5.38,9,12s-4,12-9,12-9-5.38-9-12,4-12,9-12m0-1c-5.52,0-10,5.82-10,13s4.48,13,10,13,10-5.82,10-13S97.52,64,92,64Z"/><path d="M63,122s3.7-1.44,12.65-1.44S88,122,88,122" style="fill:none;stroke:#000;stroke-miterlimit:10;stroke-width:4px"/></svg>