<svg id="Layer_1" data-name="Layer 1" xmlns="http://www.w3.org/2000/svg" viewBox="0 0 150 150"><circle cx="74.5" cy="74.5" r="59" style="fill:#ff0"/><path d="M74.5,16A58.5,58.5,0,1,1,16,74.5,58.56,58.56,0,0,1,74.5,16m0-1A59.5,59.5,0,1,0,134,74.5,59.5,59.5,0,0,0,74.5,15Z"/><path d="M104.53,114S95.78,96.5,74.64,96.5A32.54,32.54,0,0,0,45.47,114" style="fill:none;stroke:#000;stroke-miterlimit:10;stroke-width:4px"/><line x1="90.5" y1="37.5" x2="105" y2="52" style="stroke:#000;stroke-miterlimit:10;stroke-width:5px"/><line x1="104.5" y1="37.5" x2="90.5" y2="51.5" style="stroke:#000;stroke-miterlimit:10;stroke-width:5px"/><line x1="45.5" y1="37.5" x2="60" y2="52" style="stroke:#000;stroke-miterlimit:10;stroke-width:5px"/><line x1="59.5" y1="37.5" x2="45.5" y2="51.5" style="stroke:#000;stroke-miterlimit:10;stroke-width:5px"/></svg>