<svg xmlns="http://www.w3.org/2000/svg" viewBox="0 0 1086 1169.32"><g id="Layer_2" data-name="Layer 2"><path d="M367,944l92,2s-10.15-31.14-9.08-71.57-14-255-14-255l-70.09.53S390,924,367,944Z" transform="translate(-315 -9.2)" style="fill:#2f2e22"/><path d="M1349,946l-92-3s29-148,42-196,2.66-135.77,2.66-135.77L1350,613s3,206-11,225S1349,946,1349,946Z" transform="translate(-315 -9.2)" style="fill:#2f2e22"/><path d="M1973.69,217" transform="translate(-315 -9.2)" style="fill:#747f67"/><circle cx="551.72" cy="700.6" r="464.78" style="fill:#ff0"/><path d="M866.72,249c254.52,0,460.84,206.33,460.84,460.84s-206.32,460.85-460.84,460.85S405.87,964.31,405.87,709.79c.27-254.4,206.44-460.58,460.85-460.84m0-7.88C607.85,241.07,398,450.93,398,709.79s209.85,468.73,468.72,468.73,468.72-209.86,468.72-468.73S1125.59,241.07,866.72,241.07Z" transform="translate(-315 -9.2)"/><ellipse cx="413.86" cy="698.52" rx="74.84" ry="98.47"/><path d="M728.86,613.19c39.39,0,70.9,42.38,70.9,94.53s-31.51,94.53-70.9,94.53S658,759.87,658,707.72s31.51-94.53,70.9-94.53m0-7.88c-43.49,0-78.78,45.85-78.78,102.41s35.29,102.41,78.78,102.41,78.78-45.85,78.78-102.41S772.34,605.31,728.86,605.31Z" transform="translate(-315 -9.2)"/><ellipse cx="689.58" cy="698.52" rx="74.84" ry="98.47"/><path d="M1004.58,613.19c39.39,0,70.9,42.38,70.9,94.53s-31.51,94.53-70.9,94.53-70.9-42.38-70.9-94.53,31.51-94.53,70.9-94.53m0-7.88c-43.49,0-78.78,45.85-78.78,102.41s35.29,102.41,78.78,102.41,78.77-45.85,78.77-102.41S1048.06,605.31,1004.58,605.31Z" transform="translate(-315 -9.2)"/><path d="M646.14,993.42s67,102.88,229.24,102.88,223.73-102.88,223.73-102.88" transform="translate(-315 -9.2)" style="fill:none;stroke:#000;stroke-miterlimit:10;stroke-width:4px"/></g><g id="Layer_3" data-name="Layer 3"><path d="M383,530S389,34,848,10s515,498,487,573c0,0-87-20-222,11s-226,60-283,45-403-81-447-56" transform="translate(-315 -9.2)" style="fill:#68755b"/><path d="M852,588s-190-19-274-48-195-10-195-10v48s185.12,2.94,434.56,58c0,0,186,10.21,310.21-42.38S1287,597,1335,583l-1-51s-80-19-209,8S919,586,852,588Z" transform="translate(-315 -9.2)" style="fill:#747f67"/><path d="M859,689s164-1,265-31,134-41,188-36,89,19,89,19-13-59-66-63-132.17-33.35-255.58,27.32S616.25,597,616.25,597,418,561,383,578s-65,25-68,63c0,0,21-9,57-13s202.17,5.13,278.08,45.57C650.08,673.57,710,687,859,689Z" transform="translate(-315 -9.2)" style="fill:#68755b"/><g id="layer1"><g id="g6770"><path id="path6661" d="M903.73,173.06l-23.6,27.5h-.08a105.7,105.7,0,0,0-50.66,9.3l-31-29.1,8.92,42.5a108.16,108.16,0,0,0-30.18,37.6l-46.47.1,37.62,27c-.12.6-.29,1.2-.39,1.9a106.64,106.64,0,0,0,1.36,41.8l-38.13,27.4,49.72,1.8a107.48,107.48,0,0,0,26,30.3l-17.81,51,46.53-34.7A113.07,113.07,0,0,0,856,413a116.46,116.46,0,0,0,17.54,1.5l21.51,35.4,11-40.5a106.59,106.59,0,0,0,35.54-19.5l42.23,14.2-21.41-37A106.45,106.45,0,0,0,979,325.66l36.17-13.3-35-14.6a106.82,106.82,0,0,0-15.56-46.6l19.95-31.7-35.8,11.8a106.41,106.41,0,0,0-44.44-26.4l-.55-31.8Z" transform="translate(-315 -9.2)" style="fill:#8a9da5;stroke:#000;stroke-linejoin:round;stroke-width:2px"/></g></g></g></svg>